<?xml version="1.0" encoding="utf-8"?>
<!-- Generator: Adobe Illustrator 24.0.2, SVG Export Plug-In . SVG Version: 6.00 Build 0)  -->
<svg version="1.1" id="Layer_1" xmlns="http://www.w3.org/2000/svg" xmlns:xlink="http://www.w3.org/1999/xlink" x="0px" y="0px"
	 viewBox="0 0 117.3 70" style="enable-background:new 0 0 117.3 70;" xml:space="preserve">
<style type="text/css">
	.st0{fill:#FFFFFF;}
	.st1{fill:#FFFFFF;stroke:#39251F;stroke-width:0.5;stroke-miterlimit:10;}
</style>
<g>
	<path class="st0" d="M2.9,24.4c0-3.2,2.2-5.7,5.5-5.7c3.2,0,5.5,2.5,5.5,5.7v26.9c0,3.2-2.2,5.7-5.5,5.7c-3.2,0-5.5-2.5-5.5-5.7
		V24.4z"/>
	<path class="st0" d="M23.7,13.2c1.1-6,4.6-7.2,7.5-7.2c5.7,0,7,3.3,9.8,12.3l5.6,17.2h0.1l5.6-17.2C55.2,9.3,56.4,6,62.1,6
		c2.9,0,6.5,1.2,7.5,7.2l4.5,25.7C75,44.1,76,49.8,76,51.5c0,2.5-2,5.4-5.3,5.4c-5.1,0-6-3.7-6.6-7.5l-3.4-22.2h-0.1L53,51.8
		c-1.1,3.7-2.8,5.1-6.3,5.1c-3.4,0-5.1-1.5-6.3-5.1l-7.7-24.6h-0.1l-3.4,22.2c-0.6,3.9-1.5,7.5-6.6,7.5c-3.4,0-5.3-2.9-5.3-5.4
		c0-1.7,1-7.4,1.9-12.6L23.7,13.2z"/>
	<path class="st0" d="M83,43.4c2.8,0,6.5,2.9,12.3,2.9c4.4,0,6-2.2,6-4.7c0-3.8-4.4-4.6-10.8-6.7c-5.9-1.9-12-4.4-12-13.5
		c0-10.9,8.5-16,18-16c9.1,0,14.2,3.2,14.2,7.5c0,3.1-2,5.3-5.1,5.3c-3.7,0-4.9-1.9-9.7-1.9c-3.1,0-5.2,1.6-5.2,4.1
		c0,2.9,2.8,3.2,10.7,5.8c6.2,2,12.2,5.2,12.2,14.7c0,11.5-8.5,16.7-19.1,16.7c-6.7,0-16.8-2.6-16.8-8.2
		C77.7,46.3,79.6,43.4,83,43.4z"/>
	<g>
		<path class="st0" d="M4.2,66.8c0,0.5-0.3,0.7-0.7,0.7s-0.7-0.2-0.7-0.7v-4.6c0-0.5,0.3-0.7,0.7-0.7s0.7,0.2,0.7,0.7V66.8z"/>
		<path class="st0" d="M4.8,63.6c0-0.4,0.3-0.7,0.7-0.7s0.6,0.2,0.7,0.4c0.2-0.3,0.6-0.5,1.1-0.5c0.9,0,1.6,0.5,1.6,1.5v2.4
			c0,0.4-0.3,0.7-0.7,0.7s-0.7-0.3-0.7-0.7v-2.1c0-0.5-0.3-0.8-0.7-0.8c-0.5,0-0.7,0.3-0.7,0.8v2.1c0,0.4-0.3,0.7-0.7,0.7
			s-0.7-0.3-0.7-0.7v-3.1H4.8z"/>
		<path class="st0" d="M13.7,66.8c0,0.4-0.3,0.7-0.7,0.7c-0.3,0-0.5-0.2-0.6-0.4c-0.3,0.4-0.6,0.5-1.1,0.5c-1.1,0-2-1-2-2.4
			c0-1.3,0.9-2.4,2-2.4c0.6,0,0.8,0.2,1.1,0.4v-1.6c0-0.4,0.3-0.7,0.7-0.7s0.7,0.3,0.7,0.7v5.2H13.7z M10.6,65.2
			c0,0.6,0.3,1.1,0.9,1.1c0.6,0,0.9-0.5,0.9-1.1s-0.3-1.1-0.9-1.1C11,64.1,10.6,64.6,10.6,65.2z"/>
		<path class="st0" d="M15,61c0.4,0,0.8,0.3,0.8,0.8s-0.4,0.8-0.8,0.8c-0.4,0-0.8-0.3-0.8-0.8S14.5,61,15,61z M14.3,63.6
			c0-0.4,0.3-0.7,0.7-0.7s0.7,0.3,0.7,0.7v3.2c0,0.4-0.3,0.7-0.7,0.7s-0.7-0.3-0.7-0.7V63.6z"/>
		<path class="st0" d="M20.4,67c0,1.7-1.1,2.3-2.4,2.3c-0.7,0-2-0.3-2-1c0-0.3,0.3-0.6,0.5-0.6c0.4,0,0.6,0.4,1.4,0.4
			s1.1-0.4,1.1-1.2l0,0c-0.3,0.4-0.8,0.5-1.2,0.5c-1.3,0-1.9-1.1-1.9-2.3c0-1.3,0.9-2.4,2-2.4c0.5,0,0.8,0.1,1.1,0.5
			c0.1-0.2,0.3-0.4,0.6-0.4c0.4,0,0.7,0.3,0.7,0.7V67H20.4z M18.2,64.1c-0.6,0-0.9,0.5-0.9,1.1s0.3,1.1,0.9,1.1
			c0.6,0,0.9-0.5,0.9-1.1S18.8,64.1,18.2,64.1z"/>
		<path class="st0" d="M22.2,65.6c0,0.3,0.2,0.7,1,0.7c0.6,0,1-0.4,1.3-0.4s0.5,0.2,0.5,0.6c0,0.6-1.1,1.1-2.1,1.1
			c-1.4,0-2.3-1-2.3-2.4c0-1.3,0.9-2.4,2.3-2.4c1.3,0,2.1,1.1,2.1,2.2c0,0.5-0.2,0.6-0.6,0.6L22.2,65.6L22.2,65.6z M23.9,64.7
			c0-0.3-0.3-0.8-0.8-0.8s-0.8,0.5-0.8,0.8H23.9z"/>
		<path class="st0" d="M25.7,63.6c0-0.4,0.3-0.7,0.7-0.7c0.4,0,0.6,0.2,0.7,0.4c0.2-0.3,0.6-0.5,1.1-0.5c0.9,0,1.6,0.5,1.6,1.5v2.4
			c0,0.4-0.3,0.7-0.7,0.7c-0.4,0-0.7-0.3-0.7-0.7v-2.1c0-0.5-0.3-0.8-0.7-0.8S27,64.3,27,64.7v2.1c0,0.4-0.3,0.7-0.7,0.7
			c-0.4,0-0.7-0.3-0.7-0.7L25.7,63.6L25.7,63.6z"/>
		<path class="st0" d="M34.6,65.2c0,1.3-0.9,2.4-2.2,2.4c-1.3,0-2.2-1-2.2-2.4c0-1.3,0.9-2.4,2.2-2.4C33.7,62.9,34.6,63.9,34.6,65.2
			z M31.5,65.2c0,0.6,0.3,1.1,0.9,1.1s0.9-0.5,0.9-1.1s-0.3-1.1-0.9-1.1S31.5,64.6,31.5,65.2z"/>
		<path class="st0" d="M39.1,65.8c0,1.2-0.9,1.7-2,1.7s-2-0.5-2-1.7v-2.2c0-0.4,0.3-0.7,0.7-0.7c0.4,0,0.7,0.3,0.7,0.7v2
			c0,0.5,0.4,0.7,0.7,0.7c0.3,0,0.7-0.2,0.7-0.7v-2c0-0.4,0.3-0.7,0.7-0.7s0.7,0.3,0.7,0.7v2.2H39.1z"/>
		<path class="st0" d="M40,66.1c0.4,0,0.7,0.4,1.3,0.4c0.3,0,0.4-0.1,0.4-0.3c0-0.3-0.3-0.3-1-0.6c-0.7-0.3-1-0.5-1-1.2
			c0-0.7,0.6-1.5,1.7-1.5c0.5,0,1.5,0.3,1.5,0.9c0,0.3-0.2,0.6-0.5,0.6s-0.6-0.3-1-0.3c-0.2,0-0.3,0.1-0.3,0.3c0,0.5,2,0.4,2,1.8
			c0,0.9-0.8,1.5-1.7,1.5c-0.8,0-1.7-0.3-1.7-0.9C39.5,66.3,39.7,66.1,40,66.1z"/>
		<path class="st0" d="M46.2,62.3c0.1-0.7,0.6-0.9,0.9-0.9c0.7,0,0.8,0.4,1.2,1.5L49,65l0,0l0.7-2.1c0.3-1.1,0.5-1.5,1.2-1.5
			c0.3,0,0.8,0.1,0.9,0.9l0.5,3.1c0.1,0.6,0.2,1.3,0.2,1.5c0,0.3-0.2,0.6-0.6,0.6c-0.6,0-0.7-0.4-0.8-0.9L50.6,64l0,0l-0.9,2.9
			c-0.1,0.4-0.3,0.6-0.7,0.6s-0.6-0.2-0.7-0.6l-1-2.9l0,0l-0.4,2.7c-0.1,0.5-0.2,0.9-0.8,0.9c-0.4,0-0.6-0.3-0.6-0.6
			c0-0.2,0.1-0.9,0.2-1.5L46.2,62.3z"/>
		<path class="st0" d="M57.1,66.8c0,0.4-0.3,0.7-0.7,0.7c-0.3,0-0.5-0.2-0.6-0.4c-0.3,0.4-0.6,0.5-1.1,0.5c-1.1,0-2-1-2-2.4
			c0-1.3,0.9-2.4,2-2.4c0.5,0,0.8,0.1,1.1,0.5c0.1-0.2,0.3-0.4,0.6-0.4c0.4,0,0.7,0.3,0.7,0.7V66.8z M54,65.2c0,0.6,0.3,1.1,0.9,1.1
			s0.9-0.5,0.9-1.1s-0.3-1.1-0.9-1.1C54.4,64.1,54,64.6,54,65.2z"/>
		<path class="st0" d="M57.7,63.6c0-0.4,0.3-0.7,0.7-0.7c0.4,0,0.6,0.2,0.7,0.4c0.2-0.3,0.6-0.5,1.1-0.5c0.9,0,1.6,0.5,1.6,1.5v2.4
			c0,0.4-0.3,0.7-0.7,0.7c-0.4,0-0.7-0.3-0.7-0.7v-2.1c0-0.5-0.3-0.8-0.7-0.8c-0.5,0-0.7,0.3-0.7,0.8v2.1c0,0.4-0.3,0.7-0.7,0.7
			s-0.7-0.3-0.7-0.7L57.7,63.6L57.7,63.6z"/>
		<path class="st0" d="M66.6,66.8c0,0.4-0.3,0.7-0.7,0.7c-0.3,0-0.5-0.2-0.6-0.4c-0.3,0.4-0.6,0.5-1.1,0.5c-1.1,0-2-1-2-2.4
			c0-1.3,0.9-2.4,2-2.4c0.5,0,0.8,0.1,1.1,0.5c0.1-0.2,0.3-0.4,0.6-0.4c0.4,0,0.7,0.3,0.7,0.7V66.8z M63.5,65.2
			c0,0.6,0.3,1.1,0.9,1.1s0.9-0.5,0.9-1.1s-0.3-1.1-0.9-1.1S63.5,64.6,63.5,65.2z"/>
		<path class="st0" d="M71.5,67c0,1.7-1.1,2.3-2.4,2.3c-0.7,0-2-0.3-2-1c0-0.3,0.3-0.6,0.5-0.6c0.4,0,0.6,0.4,1.4,0.4
			s1.1-0.4,1.1-1.2l0,0c-0.3,0.4-0.8,0.5-1.2,0.5c-1.3,0-1.9-1.1-1.9-2.3c0-1.3,0.9-2.4,2-2.4c0.5,0,0.8,0.1,1.1,0.5
			c0.1-0.2,0.3-0.4,0.6-0.4c0.4,0,0.7,0.3,0.7,0.7V67H71.5z M69.2,64.1c-0.6,0-0.9,0.5-0.9,1.1s0.3,1.1,0.9,1.1s0.9-0.5,0.9-1.1
			S69.8,64.1,69.2,64.1z"/>
		<path class="st0" d="M73.3,65.6c0,0.3,0.2,0.7,1,0.7c0.6,0,1-0.4,1.3-0.4s0.5,0.2,0.5,0.6c0,0.6-1.1,1.1-2.1,1.1
			c-1.4,0-2.3-1-2.3-2.4c0-1.3,0.9-2.4,2.3-2.4c1.3,0,2.1,1.1,2.1,2.2c0,0.5-0.2,0.6-0.6,0.6L73.3,65.6L73.3,65.6z M75,64.7
			c0-0.3-0.3-0.8-0.8-0.8s-0.8,0.5-0.8,0.8H75z"/>
		<path class="st0" d="M80.9,66.8c0,0.4-0.3,0.7-0.7,0.7c-0.3,0-0.5-0.2-0.6-0.4c-0.3,0.4-0.6,0.5-1.1,0.5c-1.1,0-2-1-2-2.4
			c0-1.3,0.9-2.4,2-2.4c0.6,0,0.8,0.2,1.1,0.4v-1.6c0-0.4,0.3-0.7,0.7-0.7s0.7,0.3,0.7,0.7L80.9,66.8L80.9,66.8z M77.8,65.2
			c0,0.6,0.3,1.1,0.9,1.1s0.9-0.5,0.9-1.1s-0.3-1.1-0.9-1.1C78.2,64.1,77.8,64.6,77.8,65.2z"/>
		<path class="st0" d="M84.2,65.9c0.3,0,0.8,0.3,1.5,0.3c0.5,0,0.7-0.3,0.7-0.6c0-0.5-0.5-0.5-1.3-0.8c-0.7-0.2-1.4-0.5-1.4-1.6
			c0-1.3,1-1.9,2.1-1.9s1.7,0.4,1.7,0.9c0,0.4-0.2,0.6-0.6,0.6c-0.4,0-0.6-0.2-1.2-0.2c-0.4,0-0.6,0.2-0.6,0.5s0.3,0.4,1.3,0.7
			c0.7,0.2,1.5,0.6,1.5,1.8c0,1.4-1,2-2.3,2c-0.8,0-2-0.3-2-1C83.6,66.2,83.8,65.9,84.2,65.9z"/>
		<path class="st0" d="M89.6,65.6c0,0.3,0.2,0.7,1,0.7c0.6,0,1-0.4,1.3-0.4s0.5,0.2,0.5,0.6c0,0.6-1.1,1.1-2.1,1.1
			c-1.4,0-2.3-1-2.3-2.4c0-1.3,0.9-2.4,2.3-2.4c1.3,0,2.1,1.1,2.1,2.2c0,0.5-0.2,0.6-0.6,0.6L89.6,65.6L89.6,65.6z M91.3,64.7
			c0-0.3-0.3-0.8-0.8-0.8s-0.8,0.5-0.8,0.8H91.3z"/>
		<path class="st0" d="M93,63.6c0-0.4,0.3-0.7,0.7-0.7s0.6,0.2,0.7,0.4c0.2-0.3,0.5-0.5,0.9-0.5c0.3,0,0.7,0.3,0.7,0.7
			c0,0.5-0.3,0.6-0.8,0.7c-0.6,0.2-0.8,0.3-0.8,1v1.6c0,0.4-0.3,0.7-0.7,0.7S93,67.2,93,66.8L93,63.6L93,63.6z"/>
		<path class="st0" d="M95.8,64.3c-0.1-0.3-0.2-0.5-0.2-0.7c0-0.4,0.3-0.7,0.7-0.7c0.3,0,0.5,0.1,0.6,0.5l0.7,2l0,0l0.7-2
			c0.1-0.4,0.4-0.5,0.6-0.5c0.4,0,0.7,0.3,0.7,0.7c0,0.2-0.1,0.4-0.2,0.7L98.3,67c-0.1,0.3-0.4,0.5-0.7,0.5c-0.4,0-0.6-0.2-0.7-0.5
			L95.8,64.3z"/>
		<path class="st0" d="M100.5,61c0.4,0,0.8,0.3,0.8,0.8s-0.4,0.8-0.8,0.8c-0.4,0-0.8-0.3-0.8-0.8S100.1,61,100.5,61z M99.9,63.6
			c0-0.4,0.3-0.7,0.7-0.7s0.7,0.3,0.7,0.7v3.2c0,0.4-0.3,0.7-0.7,0.7s-0.7-0.3-0.7-0.7V63.6z"/>
		<path class="st0" d="M103.8,62.9c0.6,0,1.6,0.2,1.6,0.9c0,0.4-0.2,0.6-0.5,0.6s-0.4-0.2-0.9-0.2c-0.7,0-1,0.5-1,1.1
			s0.3,1.1,0.9,1.1c0.6,0,0.8-0.2,1-0.2c0.3,0,0.5,0.3,0.5,0.6c0,0.7-1,0.9-1.6,0.9c-1.3,0-2.2-1-2.2-2.4S102.5,62.9,103.8,62.9z"/>
		<path class="st0" d="M106.9,65.6c0,0.3,0.2,0.7,1,0.7c0.6,0,1-0.4,1.3-0.4s0.5,0.2,0.5,0.6c0,0.6-1.1,1.1-2.1,1.1
			c-1.4,0-2.3-1-2.3-2.4c0-1.3,0.9-2.4,2.3-2.4c1.3,0,2.1,1.1,2.1,2.2c0,0.5-0.2,0.6-0.6,0.6L106.9,65.6L106.9,65.6z M108.6,64.7
			c0-0.3-0.3-0.8-0.8-0.8s-0.8,0.5-0.8,0.8H108.6z"/>
		<path class="st0" d="M110.6,66.1c0.4,0,0.7,0.4,1.3,0.4c0.3,0,0.4-0.1,0.4-0.3c0-0.3-0.3-0.3-1-0.6c-0.7-0.3-1-0.5-1-1.2
			c0-0.7,0.6-1.5,1.7-1.5c0.5,0,1.5,0.3,1.5,0.9c0,0.3-0.2,0.6-0.5,0.6s-0.6-0.3-1-0.3c-0.2,0-0.3,0.1-0.3,0.3c0,0.5,2,0.4,2,1.8
			c0,0.9-0.8,1.5-1.7,1.5c-0.8,0-1.7-0.3-1.7-0.9C110.1,66.3,110.3,66.1,110.6,66.1z"/>
	</g>
	<g>
		<path class="st1" d="M8.4,1.3c4.1,0,7.5,3.3,7.5,7.5s-3.4,7.5-7.5,7.5S0.9,13,0.9,8.8S4.2,1.3,8.4,1.3z"/>
		<path class="st1" d="M8.4,2.6c3.4,0,6.3,2.8,6.3,6.3s-2.8,6.3-6.3,6.3c-3.4,0-6.3-2.8-6.3-6.3S4.9,2.6,8.4,2.6z"/>
		<path class="st1" d="M8.3,4.2c2.6,0,4.8,2.1,4.8,4.8s-2.2,4.8-4.8,4.8S3.5,11.7,3.5,9S5.7,4.2,8.3,4.2z"/>
		<path class="st1" d="M8.4,5.5c1.9,0,3.4,1.5,3.4,3.4s-1.5,3.4-3.4,3.4S5,10.8,5,8.9S6.6,5.5,8.4,5.5z"/>
		<path class="st1" d="M8.4,6.7c1.2,0,2.1,1,2.1,2.2s-1,2.2-2.1,2.2c-1.2,0-2.1-1-2.1-2.2S7.3,6.7,8.4,6.7z"/>
		<path class="st1" d="M8.4,7.8C9,7.8,9.5,8.3,9.5,9S9,10.2,8.4,10.2S7.3,9.7,7.3,9S7.8,7.8,8.4,7.8z"/>
	</g>
</g>
</svg>
