<?xml version="1.0" encoding="utf-8"?>
<!-- Generator: Adobe Illustrator 24.0.2, SVG Export Plug-In . SVG Version: 6.00 Build 0)  -->
<svg version="1.0" id="Layer_1" xmlns="http://www.w3.org/2000/svg" xmlns:xlink="http://www.w3.org/1999/xlink" x="0px" y="0px"
	 viewBox="0 0 200 70" style="enable-background:new 0 0 200 70;" xml:space="preserve">
<style type="text/css">
	.st0{fill:#39251F;}
	.st1{fill:#E85F24;}
	.st2{fill:#FBBF1D;}
	.st3{fill:none;stroke:#39251F;stroke-width:0.5;stroke-miterlimit:10;}
</style>
<g>
	<path class="st0" d="M48.9,24.4c0-3.2,2.2-5.7,5.5-5.7c3.2,0,5.5,2.5,5.5,5.7v26.9c0,3.2-2.2,5.7-5.5,5.7c-3.2,0-5.5-2.5-5.5-5.7
		V24.4z"/>
	<path class="st0" d="M69.7,13.2c1.1-6,4.6-7.2,7.5-7.2c5.7,0,7,3.3,9.8,12.3l5.6,17.2h0.1l5.6-17.2c2.9-9,4.1-12.3,9.8-12.3
		c2.9,0,6.5,1.2,7.5,7.2l4.5,25.7c0.9,5.2,1.9,10.9,1.9,12.6c0,2.5-2,5.4-5.3,5.4c-5.1,0-6-3.7-6.6-7.5l-3.4-22.2h-0.1L99,51.8
		c-1.1,3.7-2.8,5.1-6.3,5.1c-3.4,0-5.1-1.5-6.3-5.1l-7.7-24.6h-0.1l-3.4,22.2c-0.6,3.9-1.5,7.5-6.6,7.5c-3.4,0-5.3-2.9-5.3-5.4
		c0-1.7,1-7.4,1.9-12.6L69.7,13.2z"/>
	<path class="st0" d="M129,43.4c2.8,0,6.5,2.9,12.3,2.9c4.4,0,6-2.2,6-4.7c0-3.8-4.4-4.6-10.8-6.7c-5.9-1.9-12-4.4-12-13.5
		c0-10.9,8.5-16,18-16c9.1,0,14.2,3.2,14.2,7.5c0,3.1-2,5.3-5.1,5.3c-3.7,0-4.9-1.9-9.7-1.9c-3.1,0-5.2,1.6-5.2,4.1
		c0,2.9,2.8,3.2,10.7,5.8c6.2,2,12.2,5.2,12.2,14.7c0,11.5-8.5,16.7-19.1,16.7c-6.7,0-16.8-2.6-16.8-8.2
		C123.7,46.3,125.6,43.4,129,43.4z"/>
	<g>
		<path class="st1" d="M50.2,66.8c0,0.5-0.3,0.7-0.7,0.7c-0.4,0-0.7-0.2-0.7-0.7v-4.6c0-0.5,0.3-0.7,0.7-0.7c0.4,0,0.7,0.2,0.7,0.7
			V66.8z"/>
		<path class="st1" d="M50.8,63.6c0-0.4,0.3-0.7,0.7-0.7c0.4,0,0.6,0.2,0.7,0.4c0.2-0.3,0.6-0.5,1.1-0.5c0.9,0,1.6,0.5,1.6,1.5v2.4
			c0,0.4-0.3,0.7-0.7,0.7c-0.4,0-0.7-0.3-0.7-0.7v-2.1c0-0.5-0.3-0.8-0.7-0.8c-0.5,0-0.7,0.3-0.7,0.8v2.1c0,0.4-0.3,0.7-0.7,0.7
			c-0.4,0-0.7-0.3-0.7-0.7V63.6z"/>
		<path class="st1" d="M59.7,66.8c0,0.4-0.3,0.7-0.7,0.7c-0.3,0-0.5-0.2-0.6-0.4c-0.3,0.4-0.6,0.5-1.1,0.5c-1.1,0-2-1-2-2.4
			c0-1.3,0.9-2.4,2-2.4c0.6,0,0.8,0.2,1.1,0.4v-1.6c0-0.4,0.3-0.7,0.7-0.7c0.4,0,0.7,0.3,0.7,0.7V66.8z M56.6,65.2
			c0,0.6,0.3,1.1,0.9,1.1c0.6,0,0.9-0.5,0.9-1.1c0-0.6-0.3-1.1-0.9-1.1C57,64.1,56.6,64.6,56.6,65.2z"/>
		<path class="st1" d="M61,61c0.4,0,0.8,0.3,0.8,0.8s-0.4,0.8-0.8,0.8c-0.4,0-0.8-0.3-0.8-0.8S60.5,61,61,61z M60.3,63.6
			c0-0.4,0.3-0.7,0.7-0.7c0.4,0,0.7,0.3,0.7,0.7v3.2c0,0.4-0.3,0.7-0.7,0.7c-0.4,0-0.7-0.3-0.7-0.7V63.6z"/>
		<path class="st1" d="M66.4,67c0,1.7-1.1,2.3-2.4,2.3c-0.7,0-2-0.3-2-1c0-0.3,0.3-0.6,0.5-0.6c0.4,0,0.6,0.4,1.4,0.4
			c0.8,0,1.1-0.4,1.1-1.2h0c-0.3,0.4-0.8,0.5-1.2,0.5c-1.3,0-1.9-1.1-1.9-2.3c0-1.3,0.9-2.4,2-2.4c0.5,0,0.8,0.1,1.1,0.5
			c0.1-0.2,0.3-0.4,0.6-0.4c0.4,0,0.7,0.3,0.7,0.7V67z M64.2,64.1c-0.6,0-0.9,0.5-0.9,1.1c0,0.6,0.3,1.1,0.9,1.1
			c0.6,0,0.9-0.5,0.9-1.1C65.1,64.6,64.8,64.1,64.2,64.1z"/>
		<path class="st1" d="M68.2,65.6c0,0.3,0.2,0.7,1,0.7c0.6,0,1-0.4,1.3-0.4c0.3,0,0.5,0.2,0.5,0.6c0,0.6-1.1,1.1-2.1,1.1
			c-1.4,0-2.3-1-2.3-2.4c0-1.3,0.9-2.4,2.3-2.4c1.3,0,2.1,1.1,2.1,2.2c0,0.5-0.2,0.6-0.6,0.6H68.2z M69.9,64.7
			c0-0.3-0.3-0.8-0.8-0.8c-0.5,0-0.8,0.5-0.8,0.8H69.9z"/>
		<path class="st1" d="M71.7,63.6c0-0.4,0.3-0.7,0.7-0.7c0.4,0,0.6,0.2,0.7,0.4c0.2-0.3,0.6-0.5,1.1-0.5c0.9,0,1.6,0.5,1.6,1.5v2.4
			c0,0.4-0.3,0.7-0.7,0.7c-0.4,0-0.7-0.3-0.7-0.7v-2.1c0-0.5-0.3-0.8-0.7-0.8S73,64.3,73,64.7v2.1c0,0.4-0.3,0.7-0.7,0.7
			c-0.4,0-0.7-0.3-0.7-0.7V63.6z"/>
		<path class="st1" d="M80.6,65.2c0,1.3-0.9,2.4-2.2,2.4c-1.3,0-2.2-1-2.2-2.4c0-1.3,0.9-2.4,2.2-2.4C79.7,62.9,80.6,63.9,80.6,65.2
			z M77.5,65.2c0,0.6,0.3,1.1,0.9,1.1c0.6,0,0.9-0.5,0.9-1.1c0-0.6-0.3-1.1-0.9-1.1C77.8,64.1,77.5,64.6,77.5,65.2z"/>
		<path class="st1" d="M85.1,65.8c0,1.2-0.9,1.7-2,1.7c-1.1,0-2-0.5-2-1.7v-2.2c0-0.4,0.3-0.7,0.7-0.7c0.4,0,0.7,0.3,0.7,0.7v2
			c0,0.5,0.4,0.7,0.7,0.7c0.3,0,0.7-0.2,0.7-0.7v-2c0-0.4,0.3-0.7,0.7-0.7s0.7,0.3,0.7,0.7V65.8z"/>
		<path class="st1" d="M86,66.1c0.4,0,0.7,0.4,1.3,0.4c0.3,0,0.4-0.1,0.4-0.3c0-0.3-0.3-0.3-1-0.6c-0.7-0.3-1-0.5-1-1.2
			c0-0.7,0.6-1.5,1.7-1.5c0.5,0,1.5,0.3,1.5,0.9c0,0.3-0.2,0.6-0.5,0.6c-0.3,0-0.6-0.3-1-0.3c-0.2,0-0.3,0.1-0.3,0.3
			c0,0.5,2,0.4,2,1.8c0,0.9-0.8,1.5-1.7,1.5c-0.8,0-1.7-0.3-1.7-0.9C85.5,66.3,85.7,66.1,86,66.1z"/>
		<path class="st2" d="M92.2,62.3c0.1-0.7,0.6-0.9,0.9-0.9c0.7,0,0.8,0.4,1.2,1.5l0.7,2.1h0l0.7-2.1c0.3-1.1,0.5-1.5,1.2-1.5
			c0.3,0,0.8,0.1,0.9,0.9l0.5,3.1c0.1,0.6,0.2,1.3,0.2,1.5c0,0.3-0.2,0.6-0.6,0.6c-0.6,0-0.7-0.4-0.8-0.9L96.6,64h0l-0.9,2.9
			c-0.1,0.4-0.3,0.6-0.7,0.6s-0.6-0.2-0.7-0.6L93.3,64h0l-0.4,2.7c-0.1,0.5-0.2,0.9-0.8,0.9c-0.4,0-0.6-0.3-0.6-0.6
			c0-0.2,0.1-0.9,0.2-1.5L92.2,62.3z"/>
		<path class="st2" d="M103.1,66.8c0,0.4-0.3,0.7-0.7,0.7c-0.3,0-0.5-0.2-0.6-0.4c-0.3,0.4-0.6,0.5-1.1,0.5c-1.1,0-2-1-2-2.4
			c0-1.3,0.9-2.4,2-2.4c0.5,0,0.8,0.1,1.1,0.5c0.1-0.2,0.3-0.4,0.6-0.4c0.4,0,0.7,0.3,0.7,0.7V66.8z M100,65.2
			c0,0.6,0.3,1.1,0.9,1.1c0.6,0,0.9-0.5,0.9-1.1c0-0.6-0.3-1.1-0.9-1.1C100.4,64.1,100,64.6,100,65.2z"/>
		<path class="st2" d="M103.7,63.6c0-0.4,0.3-0.7,0.7-0.7c0.4,0,0.6,0.2,0.7,0.4c0.2-0.3,0.6-0.5,1.1-0.5c0.9,0,1.6,0.5,1.6,1.5v2.4
			c0,0.4-0.3,0.7-0.7,0.7c-0.4,0-0.7-0.3-0.7-0.7v-2.1c0-0.5-0.3-0.8-0.7-0.8c-0.5,0-0.7,0.3-0.7,0.8v2.1c0,0.4-0.3,0.7-0.7,0.7
			s-0.7-0.3-0.7-0.7V63.6z"/>
		<path class="st2" d="M112.6,66.8c0,0.4-0.3,0.7-0.7,0.7c-0.3,0-0.5-0.2-0.6-0.4c-0.3,0.4-0.6,0.5-1.1,0.5c-1.1,0-2-1-2-2.4
			c0-1.3,0.9-2.4,2-2.4c0.5,0,0.8,0.1,1.1,0.5c0.1-0.2,0.3-0.4,0.6-0.4c0.4,0,0.7,0.3,0.7,0.7V66.8z M109.5,65.2
			c0,0.6,0.3,1.1,0.9,1.1c0.6,0,0.9-0.5,0.9-1.1c0-0.6-0.3-1.1-0.9-1.1C109.8,64.1,109.5,64.6,109.5,65.2z"/>
		<path class="st2" d="M117.5,67c0,1.7-1.1,2.3-2.4,2.3c-0.7,0-2-0.3-2-1c0-0.3,0.3-0.6,0.5-0.6c0.4,0,0.6,0.4,1.4,0.4
			c0.8,0,1.1-0.4,1.1-1.2h0c-0.3,0.4-0.8,0.5-1.2,0.5c-1.3,0-1.9-1.1-1.9-2.3c0-1.3,0.9-2.4,2-2.4c0.5,0,0.8,0.1,1.1,0.5
			c0.1-0.2,0.3-0.4,0.6-0.4c0.4,0,0.7,0.3,0.7,0.7V67z M115.2,64.1c-0.6,0-0.9,0.5-0.9,1.1c0,0.6,0.3,1.1,0.9,1.1
			c0.6,0,0.9-0.5,0.9-1.1C116.1,64.6,115.8,64.1,115.2,64.1z"/>
		<path class="st2" d="M119.3,65.6c0,0.3,0.2,0.7,1,0.7c0.6,0,1-0.4,1.3-0.4c0.3,0,0.5,0.2,0.5,0.6c0,0.6-1.1,1.1-2.1,1.1
			c-1.4,0-2.3-1-2.3-2.4c0-1.3,0.9-2.4,2.3-2.4c1.3,0,2.1,1.1,2.1,2.2c0,0.5-0.2,0.6-0.6,0.6H119.3z M121,64.7
			c0-0.3-0.3-0.8-0.8-0.8c-0.5,0-0.8,0.5-0.8,0.8H121z"/>
		<path class="st2" d="M126.9,66.8c0,0.4-0.3,0.7-0.7,0.7c-0.3,0-0.5-0.2-0.6-0.4c-0.3,0.4-0.6,0.5-1.1,0.5c-1.1,0-2-1-2-2.4
			c0-1.3,0.9-2.4,2-2.4c0.6,0,0.8,0.2,1.1,0.4v-1.6c0-0.4,0.3-0.7,0.7-0.7s0.7,0.3,0.7,0.7V66.8z M123.8,65.2c0,0.6,0.3,1.1,0.9,1.1
			c0.6,0,0.9-0.5,0.9-1.1c0-0.6-0.3-1.1-0.9-1.1C124.2,64.1,123.8,64.6,123.8,65.2z"/>
		<path class="st0" d="M130.2,65.9c0.3,0,0.8,0.3,1.5,0.3c0.5,0,0.7-0.3,0.7-0.6c0-0.5-0.5-0.5-1.3-0.8c-0.7-0.2-1.4-0.5-1.4-1.6
			c0-1.3,1-1.9,2.1-1.9c1.1,0,1.7,0.4,1.7,0.9c0,0.4-0.2,0.6-0.6,0.6c-0.4,0-0.6-0.2-1.2-0.2c-0.4,0-0.6,0.2-0.6,0.5
			c0,0.3,0.3,0.4,1.3,0.7c0.7,0.2,1.5,0.6,1.5,1.8c0,1.4-1,2-2.3,2c-0.8,0-2-0.3-2-1C129.6,66.2,129.8,65.9,130.2,65.9z"/>
		<path class="st0" d="M135.6,65.6c0,0.3,0.2,0.7,1,0.7c0.6,0,1-0.4,1.3-0.4c0.3,0,0.5,0.2,0.5,0.6c0,0.6-1.1,1.1-2.1,1.1
			c-1.4,0-2.3-1-2.3-2.4c0-1.3,0.9-2.4,2.3-2.4c1.3,0,2.1,1.1,2.1,2.2c0,0.5-0.2,0.6-0.6,0.6H135.6z M137.3,64.7
			c0-0.3-0.3-0.8-0.8-0.8c-0.5,0-0.8,0.5-0.8,0.8H137.3z"/>
		<path class="st0" d="M139,63.6c0-0.4,0.3-0.7,0.7-0.7c0.4,0,0.6,0.2,0.7,0.4c0.2-0.3,0.5-0.5,0.9-0.5c0.3,0,0.7,0.3,0.7,0.7
			c0,0.5-0.3,0.6-0.8,0.7c-0.6,0.2-0.8,0.3-0.8,1v1.6c0,0.4-0.3,0.7-0.7,0.7c-0.4,0-0.7-0.3-0.7-0.7V63.6z"/>
		<path class="st0" d="M141.8,64.3c-0.1-0.3-0.2-0.5-0.2-0.7c0-0.4,0.3-0.7,0.7-0.7c0.3,0,0.5,0.1,0.6,0.5l0.7,2h0l0.7-2
			c0.1-0.4,0.4-0.5,0.6-0.5c0.4,0,0.7,0.3,0.7,0.7c0,0.2-0.1,0.4-0.2,0.7l-1.1,2.7c-0.1,0.3-0.4,0.5-0.7,0.5c-0.4,0-0.6-0.2-0.7-0.5
			L141.8,64.3z"/>
		<path class="st0" d="M146.5,61c0.4,0,0.8,0.3,0.8,0.8s-0.4,0.8-0.8,0.8c-0.4,0-0.8-0.3-0.8-0.8S146.1,61,146.5,61z M145.9,63.6
			c0-0.4,0.3-0.7,0.7-0.7c0.4,0,0.7,0.3,0.7,0.7v3.2c0,0.4-0.3,0.7-0.7,0.7c-0.4,0-0.7-0.3-0.7-0.7V63.6z"/>
		<path class="st0" d="M149.8,62.9c0.6,0,1.6,0.2,1.6,0.9c0,0.4-0.2,0.6-0.5,0.6c-0.3,0-0.4-0.2-0.9-0.2c-0.7,0-1,0.5-1,1.1
			c0,0.6,0.3,1.1,0.9,1.1c0.6,0,0.8-0.2,1-0.2c0.3,0,0.5,0.3,0.5,0.6c0,0.7-1,0.9-1.6,0.9c-1.3,0-2.2-1-2.2-2.4
			C147.6,63.9,148.5,62.9,149.8,62.9z"/>
		<path class="st0" d="M152.9,65.6c0,0.3,0.2,0.7,1,0.7c0.6,0,1-0.4,1.3-0.4c0.3,0,0.5,0.2,0.5,0.6c0,0.6-1.1,1.1-2.1,1.1
			c-1.4,0-2.3-1-2.3-2.4c0-1.3,0.9-2.4,2.3-2.4c1.3,0,2.1,1.1,2.1,2.2c0,0.5-0.2,0.6-0.6,0.6H152.9z M154.6,64.7
			c0-0.3-0.3-0.8-0.8-0.8s-0.8,0.5-0.8,0.8H154.6z"/>
		<path class="st0" d="M156.6,66.1c0.4,0,0.7,0.4,1.3,0.4c0.3,0,0.4-0.1,0.4-0.3c0-0.3-0.3-0.3-1-0.6c-0.7-0.3-1-0.5-1-1.2
			c0-0.7,0.6-1.5,1.7-1.5c0.5,0,1.5,0.3,1.5,0.9c0,0.3-0.2,0.6-0.5,0.6c-0.3,0-0.6-0.3-1-0.3c-0.2,0-0.3,0.1-0.3,0.3
			c0,0.5,2,0.4,2,1.8c0,0.9-0.8,1.5-1.7,1.5c-0.8,0-1.7-0.3-1.7-0.9C156.1,66.3,156.3,66.1,156.6,66.1z"/>
	</g>
	<g>
		<path class="st3" d="M54.4,1.3c4.1,0,7.5,3.3,7.5,7.5s-3.4,7.5-7.5,7.5c-4.1,0-7.5-3.3-7.5-7.5S50.2,1.3,54.4,1.3z"/>
		<path class="st3" d="M54.4,2.6c3.4,0,6.3,2.8,6.3,6.3s-2.8,6.3-6.3,6.3c-3.4,0-6.3-2.8-6.3-6.3S50.9,2.6,54.4,2.6z"/>
		<path class="st3" d="M54.3,4.2c2.6,0,4.8,2.1,4.8,4.8s-2.2,4.8-4.8,4.8c-2.6,0-4.8-2.1-4.8-4.8S51.7,4.2,54.3,4.2z"/>
		<path class="st3" d="M54.4,5.5c1.9,0,3.4,1.5,3.4,3.4s-1.5,3.4-3.4,3.4c-1.9,0-3.4-1.5-3.4-3.4S52.6,5.5,54.4,5.5z"/>
		<path class="st3" d="M54.4,6.7c1.2,0,2.1,1,2.1,2.2s-1,2.2-2.1,2.2c-1.2,0-2.1-1-2.1-2.2S53.3,6.7,54.4,6.7z"/>
		<path class="st3" d="M54.4,7.8c0.6,0,1.1,0.5,1.1,1.2s-0.5,1.2-1.1,1.2c-0.6,0-1.1-0.5-1.1-1.2S53.8,7.8,54.4,7.8z"/>
	</g>
</g>
</svg>
